<?xml version="1.0" encoding="utf-8"?>
<!-- Generator: Adobe Illustrator 16.0.1, SVG Export Plug-In . SVG Version: 6.00 Build 0)  -->
<!DOCTYPE svg PUBLIC "-//W3C//DTD SVG 1.1//EN" "http://www.w3.org/Graphics/SVG/1.1/DTD/svg11.dtd">
<svg version="1.1" id="Layer_1" xmlns="http://www.w3.org/2000/svg" xmlns:xlink="http://www.w3.org/1999/xlink" x="0px" y="0px"
	 width="11px" height="11px" viewBox="3 3 11 11" enable-background="new 3 3 11 11" xml:space="preserve">
<path fill="#FFFFFF" d="M13.031,7.75H9.25V4c0-0.275-0.225-0.5-0.5-0.5h-0.5c-0.275,0-0.5,0.225-0.5,0.5v3.75H4.031
	c-0.275,0-0.5,0.225-0.5,0.5v0.5c0,0.275,0.225,0.5,0.5,0.5H7.75V13c0,0.275,0.225,0.5,0.5,0.5h0.5c0.275,0,0.5-0.225,0.5-0.5V9.25
	h3.781c0.275,0,0.5-0.225,0.5-0.5v-0.5C13.531,7.975,13.307,7.75,13.031,7.75z"/>
</svg>
