<?xml version="1.0" encoding="utf-8"?>
<!-- Generator: Adobe Illustrator 16.0.1, SVG Export Plug-In . SVG Version: 6.00 Build 0)  -->
<!DOCTYPE svg PUBLIC "-//W3C//DTD SVG 1.1//EN" "http://www.w3.org/Graphics/SVG/1.1/DTD/svg11.dtd">
<svg version="1.1" xmlns="http://www.w3.org/2000/svg" xmlns:xlink="http://www.w3.org/1999/xlink" x="0px" y="0px" width="38px"
	 height="38px" viewBox="0 0 38 38" enable-background="new 0 0 38 38" xml:space="preserve">
<g id="rays">
</g>
<g id="sun">
</g>
<g id="eye">
	<g>
		<path fill="#FFCC20" d="M18.809,30.64c-0.208-0.007-0.379,0.158-0.379,0.367v6.612c0,0.21,0.171,0.381,0.379,0.381h0.38
			c0.208,0,0.38-0.171,0.38-0.381v-6.612c0-0.209-0.17-0.374-0.379-0.367c0,0,0,0-0.191,0S18.809,30.64,18.809,30.64z"/>
		<path fill="#FFCC20" d="M19.191,7.359c0.208,0.008,0.379-0.157,0.379-0.366V0.38c0-0.209-0.171-0.38-0.38-0.38h-0.38
			c-0.208,0-0.379,0.171-0.379,0.38v6.613c0,0.209,0.17,0.374,0.379,0.366c0,0,0,0,0.191,0S19.191,7.359,19.191,7.359z"/>
		<path fill="#FFCC20" d="M31.007,18.43c-0.209,0-0.374,0.17-0.366,0.379c0,0,0,0,0,0.191s0,0.191,0,0.191
			c-0.007,0.208,0.157,0.379,0.366,0.379h6.613c0.208,0,0.38-0.171,0.38-0.38v-0.38c0-0.208-0.171-0.379-0.38-0.379H31.007z"/>
		<path fill="#FFCC20" d="M7.359,19c0-0.191,0-0.191,0-0.191c0.008-0.208-0.157-0.379-0.366-0.379H0.38
			C0.171,18.43,0,18.602,0,18.81v0.38c0,0.208,0.171,0.38,0.38,0.38h6.613c0.209,0,0.374-0.17,0.366-0.379
			C7.359,19.191,7.359,19.191,7.359,19z"/>
		<path fill="#FFCC20" d="M27.231,27.23c-0.134,0.136-0.134,0.136-0.134,0.136c-0.153,0.142-0.157,0.379-0.01,0.526l4.676,4.676
			c0.147,0.148,0.39,0.148,0.537,0l0.269-0.267c0.148-0.148,0.148-0.391,0-0.539l-4.676-4.676c-0.147-0.148-0.385-0.144-0.527,0.01
			C27.366,27.097,27.366,27.097,27.231,27.23z"/>
		<path fill="#FFCC20" d="M10.769,10.769c0.134-0.135,0.134-0.135,0.134-0.135c0.153-0.142,0.157-0.379,0.009-0.527L6.237,5.43
			c-0.147-0.147-0.39-0.147-0.538,0L5.43,5.699c-0.147,0.148-0.147,0.39,0,0.538l4.677,4.676c0.147,0.148,0.385,0.144,0.527-0.009
			C10.634,10.903,10.634,10.903,10.769,10.769z"/>
		<path fill="#FFCC20" d="M10.634,27.097c-0.142-0.153-0.379-0.158-0.527-0.01L5.43,31.763c-0.147,0.148-0.147,0.391,0,0.539
			l0.269,0.267c0.148,0.148,0.39,0.148,0.538,0l4.676-4.676c0.148-0.146,0.144-0.385-0.009-0.526c0,0,0,0-0.134-0.136
			C10.634,27.097,10.634,27.097,10.634,27.097z"/>
		<path fill="#FFCC20" d="M27.366,10.903c0.142,0.153,0.379,0.157,0.527,0.009l4.676-4.676c0.148-0.147,0.148-0.39,0-0.538
			L32.3,5.43c-0.147-0.147-0.39-0.147-0.537,0l-4.676,4.677c-0.147,0.147-0.143,0.385,0.01,0.527c0,0,0,0,0.134,0.135
			C27.366,10.903,27.366,10.903,27.366,10.903z"/>
		<path fill="#FFCC20" d="M8.274,14.468c0.064-0.15,0.064-0.15,0.064-0.15c0.074-0.162-0.022-0.36-0.216-0.44l-6.108-2.53
			c-0.192-0.08-0.416,0.013-0.497,0.206l-0.145,0.351c-0.08,0.193,0.012,0.417,0.206,0.497l6.107,2.53
			c0.193,0.08,0.411-0.015,0.485-0.21C8.171,14.721,8.19,14.669,8.274,14.468z"/>
		<path fill="#FFCC20" d="M29.725,23.532c-0.064,0.149-0.064,0.149-0.064,0.149c-0.074,0.162,0.022,0.361,0.215,0.44l6.108,2.53
			c0.192,0.08,0.416-0.013,0.496-0.207l0.146-0.35c0.08-0.193-0.012-0.417-0.206-0.497l-6.107-2.53
			c-0.193-0.078-0.411,0.016-0.485,0.212C29.829,23.28,29.81,23.33,29.725,23.532z"/>
		<path fill="#FFCC20" d="M23.682,8.339c0.162,0.074,0.36-0.022,0.44-0.216l2.53-6.108c0.08-0.192-0.013-0.416-0.206-0.497
			l-0.351-0.145c-0.193-0.08-0.417,0.012-0.497,0.206l-2.53,6.107c-0.08,0.193,0.014,0.411,0.21,0.485c0,0,0.051,0.019,0.252,0.103
			C23.682,8.339,23.682,8.339,23.682,8.339z"/>
		<path fill="#FFCC20" d="M14.318,29.662c-0.162-0.075-0.36,0.021-0.44,0.214l-2.53,6.108c-0.08,0.193,0.013,0.417,0.206,0.496
			l0.351,0.146c0.193,0.08,0.417-0.014,0.497-0.206l2.53-6.108c0.08-0.192-0.015-0.41-0.21-0.483c0,0-0.052-0.02-0.252-0.104
			C14.318,29.662,14.318,29.662,14.318,29.662z"/>
		<path fill="#FFCC20" d="M8.274,23.532C8.19,23.33,8.171,23.28,8.171,23.28c-0.074-0.196-0.292-0.29-0.485-0.212l-6.107,2.53
			c-0.193,0.08-0.286,0.304-0.206,0.497l0.145,0.35c0.081,0.194,0.304,0.287,0.497,0.207l6.108-2.53
			c0.193-0.079,0.29-0.278,0.216-0.44C8.339,23.682,8.339,23.682,8.274,23.532z"/>
		<path fill="#FFCC20" d="M29.725,14.468c0.085,0.201,0.104,0.252,0.104,0.252c0.074,0.195,0.292,0.29,0.485,0.21l6.107-2.53
			c0.193-0.08,0.286-0.304,0.206-0.497l-0.146-0.351c-0.08-0.193-0.304-0.285-0.497-0.206l-6.108,2.53
			c-0.193,0.08-0.29,0.278-0.215,0.44C29.661,14.318,29.661,14.318,29.725,14.468z"/>
		<path fill="#FFCC20" d="M14.468,8.274c0.201-0.084,0.252-0.103,0.252-0.103c0.195-0.074,0.29-0.292,0.21-0.485l-2.53-6.107
			c-0.08-0.193-0.304-0.286-0.497-0.206l-0.351,0.145c-0.193,0.081-0.285,0.304-0.206,0.497l2.53,6.108
			c0.08,0.193,0.278,0.29,0.44,0.216C14.318,8.339,14.318,8.339,14.468,8.274z"/>
		<path fill="#FFCC20" d="M23.532,29.726c-0.201,0.084-0.252,0.104-0.252,0.104c-0.196,0.073-0.29,0.291-0.21,0.483l2.53,6.108
			c0.08,0.192,0.303,0.286,0.497,0.206l0.351-0.146c0.193-0.079,0.285-0.303,0.206-0.496l-2.53-6.108
			c-0.08-0.192-0.278-0.289-0.44-0.214C23.682,29.662,23.682,29.662,23.532,29.726z"/>
		<path fill="#FFCC20" d="M25.365,26.172c0.285-0.253,0.554-0.522,0.806-0.807c0.579-0.651,1.07-1.382,1.456-2.175
			c0.166-0.341,0.312-0.692,0.437-1.054c0.28-0.812,0.456-1.672,0.508-2.567c0.012-0.188,0.017-0.378,0.017-0.57
			c0-0.192-0.005-0.381-0.017-0.57c-0.052-0.895-0.228-1.756-0.508-2.568c-0.125-0.361-0.271-0.713-0.437-1.053
			c-0.386-0.792-0.877-1.523-1.456-2.175c-0.252-0.284-0.521-0.553-0.806-0.805c-0.651-0.579-1.382-1.071-2.175-1.456
			c-0.34-0.166-0.691-0.312-1.053-0.437c-0.812-0.281-1.673-0.456-2.567-0.509C19.382,9.417,19.191,9.411,19,9.411
			c-0.192,0-0.381,0.006-0.57,0.017c-0.895,0.053-1.756,0.228-2.568,0.509c-0.361,0.125-0.713,0.271-1.053,0.437
			c-0.792,0.385-1.523,0.877-2.175,1.456c-0.284,0.252-0.553,0.521-0.805,0.805c-0.579,0.652-1.071,1.383-1.456,2.175
			c-0.166,0.34-0.312,0.692-0.437,1.053c-0.281,0.812-0.456,1.673-0.509,2.568C9.417,18.619,9.411,18.808,9.411,19
			c0,0.191,0.006,0.382,0.017,0.57c0.053,0.895,0.228,1.755,0.509,2.567c0.125,0.361,0.271,0.713,0.437,1.054
			c0.385,0.793,0.877,1.523,1.456,2.175c0.252,0.284,0.521,0.554,0.805,0.807c0.652,0.578,1.383,1.069,2.175,1.455
			c0.34,0.165,0.692,0.312,1.053,0.437c0.812,0.28,1.673,0.456,2.567,0.508c0.188,0.011,0.378,0.019,0.57,0.019
			c0.191,0,0.382-0.008,0.57-0.019c0.895-0.052,1.756-0.228,2.567-0.508c0.362-0.125,0.712-0.271,1.053-0.437
			C23.982,27.241,24.713,26.75,25.365,26.172z M20.025,22.964c-0.15,0.026-0.301,0.047-0.455,0.062
			c-0.188,0.019-0.377,0.028-0.57,0.028c-0.193,0-0.382-0.011-0.57-0.028c-0.153-0.017-0.305-0.037-0.454-0.063
			c-0.383-0.068-0.754-0.171-1.109-0.302c-0.174-0.063-0.344-0.134-0.511-0.21c-0.368-0.168-0.714-0.364-1.036-0.576
			c-0.226-0.148-0.439-0.307-0.638-0.469c-0.345-0.28-0.646-0.573-0.896-0.863c-0.298-0.343-0.523-0.678-0.66-0.972
			c-0.102-0.216-0.155-0.411-0.155-0.57c0-0.167,0.047-0.36,0.136-0.57c0.129-0.305,0.348-0.645,0.64-0.99
			c0.247-0.291,0.547-0.584,0.892-0.864c0.204-0.166,0.423-0.326,0.656-0.477c0.323-0.21,0.674-0.402,1.045-0.567
			c0.169-0.076,0.344-0.145,0.522-0.208c0.356-0.126,0.729-0.226,1.113-0.291c0.15-0.025,0.302-0.046,0.456-0.06
			c0.188-0.018,0.377-0.028,0.57-0.028c0.192,0,0.382,0.011,0.57,0.029c0.153,0.015,0.305,0.036,0.454,0.062
			c0.383,0.067,0.754,0.17,1.11,0.301c0.175,0.064,0.345,0.134,0.512,0.21c0.368,0.168,0.715,0.364,1.037,0.576
			c0.226,0.149,0.44,0.307,0.639,0.468c0.345,0.281,0.646,0.575,0.896,0.863c0.298,0.344,0.522,0.68,0.659,0.975
			c0.101,0.216,0.153,0.41,0.153,0.57c0,0.164-0.049,0.358-0.143,0.57c-0.132,0.3-0.353,0.638-0.648,0.983
			c-0.248,0.29-0.549,0.583-0.894,0.863c-0.202,0.164-0.418,0.323-0.648,0.473c-0.323,0.211-0.671,0.405-1.042,0.572
			c-0.167,0.075-0.341,0.145-0.517,0.208C20.781,22.798,20.409,22.897,20.025,22.964z"/>
		<path fill="#26A9E0" d="M21.951,18.43c-0.002-0.011-0.004-0.022-0.006-0.034c-0.078-0.382-0.228-0.738-0.437-1.053
			c-0.006-0.009-0.012-0.019-0.018-0.028c-0.215-0.317-0.489-0.591-0.806-0.806c-0.009-0.006-0.019-0.012-0.028-0.019
			c-0.314-0.208-0.671-0.358-1.053-0.437c-0.012-0.002-0.022-0.004-0.034-0.006c-0.185-0.035-0.375-0.054-0.57-0.054
			c-0.195,0-0.385,0.019-0.57,0.054c-0.011,0.002-0.022,0.004-0.034,0.006c-0.382,0.078-0.738,0.229-1.053,0.437
			c-0.009,0.007-0.019,0.013-0.028,0.019c-0.317,0.215-0.591,0.489-0.806,0.806c-0.006,0.009-0.012,0.019-0.019,0.028
			c-0.208,0.314-0.358,0.671-0.437,1.053c-0.002,0.011-0.004,0.022-0.006,0.034c-0.035,0.185-0.054,0.375-0.054,0.57
			c0,0.194,0.019,0.385,0.054,0.57c0.002,0.011,0.004,0.022,0.006,0.034c0.078,0.382,0.229,0.738,0.437,1.052
			c0.007,0.01,0.013,0.02,0.019,0.029c0.215,0.316,0.489,0.59,0.806,0.805c0.009,0.007,0.019,0.014,0.028,0.02
			c0.314,0.208,0.671,0.358,1.053,0.437c0.012,0.002,0.022,0.004,0.034,0.006c0.185,0.035,0.375,0.054,0.57,0.054
			c0.194,0,0.385-0.019,0.57-0.054c0.011-0.002,0.022-0.004,0.034-0.006c0.382-0.078,0.738-0.229,1.053-0.437
			c0.009-0.006,0.019-0.013,0.027-0.02c0.317-0.215,0.591-0.488,0.807-0.805c0.006-0.01,0.012-0.02,0.018-0.029
			c0.208-0.313,0.359-0.669,0.437-1.052c0.002-0.012,0.004-0.022,0.006-0.034c0.036-0.185,0.054-0.375,0.054-0.57
			C22.005,18.805,21.987,18.615,21.951,18.43z"/>
	</g>
</g>
</svg>
