<?xml version="1.0" encoding="utf-8"?>
<!-- Generator: Adobe Illustrator 16.0.1, SVG Export Plug-In . SVG Version: 6.00 Build 0)  -->
<!DOCTYPE svg PUBLIC "-//W3C//DTD SVG 1.1//EN" "http://www.w3.org/Graphics/SVG/1.1/DTD/svg11.dtd">
<svg version="1.1" id="Layer_1" xmlns="http://www.w3.org/2000/svg" xmlns:xlink="http://www.w3.org/1999/xlink" x="0px" y="0px"
	 width="11px" height="11px" viewBox="0 0 11 11" enable-background="new 0 0 11 11" xml:space="preserve">
<path fill="#FFFFFF" d="M5.5,0.595c2.705,0,4.906,2.2,4.906,4.906c0,2.704-2.201,4.905-4.906,4.905S0.594,8.205,0.594,5.501
	C0.594,2.795,2.795,0.595,5.5,0.595 M5.5,0C2.463,0,0,2.461,0,5.5C0,8.537,2.463,11,5.5,11C8.538,11,11,8.538,11,5.5
	C11,2.463,8.538,0,5.5,0L5.5,0z"/>
<g>
	<path fill="#FFFFFF" d="M2.334,8.667l4.22-2.112l2.111-4.22l-4.22,2.112L2.334,8.667z M5.839,6.499
		C4.945,6.943,4.05,7.391,3.156,7.84C3.603,6.946,4.05,6.05,4.498,5.159C4.946,5.604,5.392,6.049,5.839,6.499z"/>
</g>
</svg>
