<?xml version="1.0" encoding="utf-8"?>
<!-- Generator: Adobe Illustrator 16.0.1, SVG Export Plug-In . SVG Version: 6.00 Build 0)  -->
<!DOCTYPE svg PUBLIC "-//W3C//DTD SVG 1.1//EN" "http://www.w3.org/Graphics/SVG/1.1/DTD/svg11.dtd">
<svg version="1.1" id="Layer_1" xmlns="http://www.w3.org/2000/svg" xmlns:xlink="http://www.w3.org/1999/xlink" x="0px" y="0px"
	 width="100px" height="100px" viewBox="-31 -31 100 100" enable-background="new -31 -31 100 100" xml:space="preserve">
<g id="rays">
</g>
<g id="sun">
</g>
<g id="eye">
	<g>
		<path fill="#FFCC20" d="M18.498,49.633c-0.547-0.021-0.998,0.414-0.998,0.965v17.4C17.5,68.55,17.95,69,18.498,69h1
			c0.547,0,0.999-0.45,0.999-1.002v-17.4c0-0.551-0.446-0.985-0.997-0.965c0,0,0,0-0.502,0
			C18.495,49.633,18.498,49.633,18.498,49.633z"/>
		<path fill="#FFCC20" d="M19.503-11.634c0.547,0.022,0.998-0.413,0.998-0.963V-30c0-0.55-0.451-1-1.001-1H18.5
			c-0.548,0-0.998,0.45-0.998,1v17.403c0,0.55,0.447,0.985,0.998,0.963c0,0,0,0,0.502,0C19.506-11.634,19.503-11.634,19.503-11.634z
			"/>
		<path fill="#FFCC20" d="M50.598,17.5c-0.551,0-0.985,0.447-0.965,0.998c0,0,0,0,0,0.502c0,0.503,0,0.503,0,0.503
			c-0.018,0.547,0.414,0.998,0.965,0.998H68c0.548,0,1-0.451,1-1.001V18.5c0-0.548-0.45-0.998-1-0.998L50.598,17.5L50.598,17.5z"/>
		<path fill="#FFCC20" d="M-11.634,19c0-0.502,0-0.502,0-0.502c0.022-0.547-0.413-0.998-0.963-0.998H-30c-0.55,0-1,0.453-1,1V19.5
			c0,0.548,0.45,1.001,1,1.001h17.403c0.55,0,0.985-0.448,0.963-0.998C-11.634,19.503-11.634,19.503-11.634,19z"/>
		<path fill="#FFCC20" d="M40.659,40.659c-0.35,0.357-0.35,0.357-0.35,0.357c-0.406,0.372-0.416,0.997-0.03,1.385l12.31,12.305
			c0.382,0.386,1.022,0.386,1.408,0l0.709-0.707c0.389-0.388,0.389-1.027,0-1.418L42.401,40.276
			c-0.386-0.388-1.016-0.383-1.385,0.025C41.017,40.31,41.017,40.31,40.659,40.659z"/>
		<path fill="#FFCC20" d="M-2.661-2.661c0.353-0.356,0.353-0.356,0.353-0.356c0.403-0.373,0.414-0.997,0.024-1.386L-14.587-16.71
			c-0.387-0.387-1.025-0.387-1.415,0l-0.708,0.708c-0.387,0.39-0.387,1.025,0,1.415L-4.403-2.281
			c0.387,0.389,1.014,0.379,1.386-0.024C-3.017-2.308-3.017-2.308-2.661-2.661z"/>
		<path fill="#FFCC20" d="M-3.017,40.31c-0.373-0.406-0.997-0.416-1.386-0.028L-16.71,52.589c-0.387,0.388-0.387,1.03,0,1.416
			l0.708,0.701c0.39,0.391,1.025,0.391,1.415,0l12.306-12.305c0.389-0.383,0.379-1.013-0.024-1.38c0,0,0,0-0.353-0.362
			C-3.017,40.31-3.017,40.31-3.017,40.31z"/>
		<path fill="#FFCC20" d="M41.017-2.308c0.372,0.403,0.997,0.414,1.385,0.024L54.706-14.59c0.389-0.387,0.389-1.025,0-1.415
			l-0.707-0.705c-0.388-0.387-1.025-0.387-1.41,0L40.281-4.403c-0.388,0.387-0.378,1.014,0.028,1.386c0,0,0,0,0.35,0.356
			C41.017-2.308,41.017-2.308,41.017-2.308z"/>
		<path fill="#FFCC20" d="M-9.227,7.073c0.168-0.395,0.168-0.395,0.168-0.395c0.195-0.425-0.058-0.947-0.568-1.158l-16.073-6.657
			c-0.506-0.211-1.095,0.033-1.308,0.542l-0.382,0.924c-0.21,0.508,0.031,1.098,0.542,1.307l16.071,6.658
			c0.508,0.211,1.082-0.04,1.276-0.552C-9.498,7.74-9.448,7.602-9.227,7.073z"/>
		<path fill="#FFCC20" d="M47.223,30.927c-0.164,0.394-0.164,0.394-0.164,0.394c-0.195,0.421,0.056,0.946,0.565,1.153l16.071,6.654
			c0.504,0.21,1.096-0.031,1.306-0.546l0.386-0.919c0.211-0.51-0.036-1.098-0.543-1.306l-16.069-6.661
			c-0.506-0.201-1.079,0.046-1.273,0.56C47.498,30.264,47.449,30.395,47.223,30.927z"/>
		<path fill="#FFCC20" d="M31.32-9.055c0.427,0.195,0.948-0.059,1.159-0.569l6.658-16.073c0.211-0.505-0.036-1.095-0.545-1.308
			l-0.92-0.382c-0.509-0.21-1.103,0.031-1.311,0.542l-6.656,16.071c-0.211,0.507,0.036,1.082,0.55,1.276c0,0,0.137,0.05,0.664,0.271
			C31.32-9.055,31.32-9.055,31.32-9.055z"/>
		<path fill="#FFCC20" d="M6.679,47.059c-0.427-0.198-0.947,0.056-1.158,0.562l-6.657,16.074c-0.211,0.504,0.033,1.096,0.542,1.306
			l0.923,0.384c0.509,0.21,1.097-0.039,1.308-0.543L8.295,48.77c0.211-0.504-0.04-1.079-0.552-1.269c0,0-0.138-0.058-0.663-0.273
			C6.679,47.059,6.679,47.059,6.679,47.059z"/>
		<path fill="#FFCC20" d="M-9.227,30.927c-0.221-0.532-0.271-0.663-0.271-0.663c-0.194-0.516-0.769-0.764-1.276-0.558l-16.071,6.656
			c-0.507,0.208-0.752,0.802-0.542,1.306l0.382,0.925c0.213,0.509,0.799,0.756,1.308,0.545l16.073-6.658
			c0.508-0.209,0.764-0.732,0.568-1.159C-9.056,31.32-9.056,31.32-9.227,30.927z"/>
		<path fill="#FFCC20" d="M47.223,7.073c0.227,0.529,0.275,0.663,0.275,0.663C47.69,8.25,48.266,8.5,48.774,8.29l16.067-6.659
			c0.504-0.21,0.753-0.799,0.543-1.308l-0.384-0.924c-0.21-0.508-0.802-0.749-1.306-0.541L47.621,5.516
			c-0.507,0.211-0.764,0.731-0.565,1.158C47.056,6.679,47.056,6.679,47.223,7.073z"/>
		<path fill="#FFCC20" d="M7.073-9.227c0.529-0.221,0.665-0.271,0.665-0.271C8.25-9.692,8.5-10.266,8.29-10.773L1.631-26.845
			c-0.21-0.509-0.799-0.752-1.308-0.542l-0.924,0.382c-0.507,0.213-0.749,0.8-0.541,1.308L5.516-9.624
			C5.727-9.116,6.247-8.86,6.673-9.055C6.679-9.055,6.679-9.055,7.073-9.227z"/>
		<path fill="#FFCC20" d="M30.927,47.228c-0.529,0.222-0.666,0.275-0.666,0.275c-0.513,0.188-0.761,0.766-0.55,1.267l6.657,16.074
			c0.21,0.507,0.796,0.754,1.311,0.543l0.922-0.386c0.507-0.205,0.748-0.796,0.543-1.306l-6.659-16.069
			c-0.211-0.501-0.732-0.761-1.159-0.562C31.32,47.059,31.32,47.059,30.927,47.228z"/>
		<path fill="#FFCC20" d="M35.751,37.873c0.75-0.665,1.457-1.372,2.119-2.122c1.524-1.715,2.817-3.639,3.832-5.726
			c0.438-0.895,0.823-1.82,1.151-2.775c0.735-2.137,1.198-4.4,1.339-6.754c0.031-0.497,0.044-0.993,0.044-1.499
			c0-0.505-0.013-1.002-0.044-1.5c-0.141-2.355-0.604-4.622-1.339-6.758c-0.328-0.95-0.712-1.876-1.151-2.771
			c-1.015-2.084-2.308-4.008-3.832-5.724c-0.662-0.747-1.369-1.455-2.119-2.118c-1.715-1.524-3.639-2.819-5.726-3.832
			c-0.895-0.437-1.817-0.821-2.771-1.15c-2.139-0.74-4.405-1.2-6.754-1.34C20.005-6.218,19.503-6.234,19-6.234
			c-0.505,0-1.002,0.016-1.5,0.044c-2.354,0.14-4.621,0.604-6.758,1.34C9.792-4.521,8.865-4.137,7.971-3.7
			C5.887-2.688,3.963-1.392,2.247,0.131C1.5,0.795,0.792,1.503,0.129,2.249C-1.395,3.966-2.69,5.89-3.702,7.974
			c-0.437,0.895-0.821,1.821-1.15,2.771c-0.74,2.136-1.2,4.403-1.34,6.758C-6.218,17.998-6.234,18.495-6.234,19
			c0,0.503,0.016,1.005,0.045,1.501c0.139,2.354,0.598,4.618,1.338,6.751c0.329,0.95,0.713,1.879,1.15,2.778
			c1.012,2.087,2.308,4.003,3.831,5.724c0.664,0.747,1.372,1.457,2.118,2.122c1.717,1.521,3.641,2.813,5.725,3.829
			c0.895,0.435,1.821,0.82,2.771,1.148c2.136,0.737,4.403,1.203,6.755,1.342c0.495,0.028,0.995,0.049,1.5,0.049
			c0.503,0,1.005-0.021,1.501-0.049c2.354-0.139,4.62-0.604,6.754-1.342c0.95-0.328,1.876-0.712,2.771-1.148
			C32.112,40.688,34.033,39.395,35.751,37.873z M21.699,29.432c-0.396,0.068-0.792,0.123-1.198,0.162
			C20.005,29.646,19.508,29.67,19,29.67c-0.507,0-1.005-0.031-1.5-0.076c-0.403-0.044-0.803-0.094-1.194-0.162
			c-1.009-0.178-1.984-0.45-2.918-0.795c-0.459-0.164-0.906-0.354-1.346-0.552c-0.969-0.442-1.878-0.959-2.727-1.517
			c-0.594-0.388-1.155-0.81-1.678-1.233c-0.909-0.737-1.7-1.509-2.358-2.272c-0.785-0.902-1.376-1.783-1.737-2.562
			c-0.268-0.563-0.407-1.077-0.407-1.496c0-0.439,0.124-0.947,0.357-1.5c0.339-0.803,0.916-1.697,1.685-2.605
			c0.65-0.766,1.439-1.537,2.348-2.273c0.536-0.437,1.112-0.858,1.726-1.255c0.85-0.552,1.774-1.058,2.75-1.492
			c0.444-0.201,0.906-0.381,1.374-0.547C14.31,9,15.292,8.737,16.303,8.566c0.394-0.066,0.794-0.121,1.2-0.158
			c0.495-0.048,0.992-0.074,1.5-0.074c0.505,0,1.004,0.029,1.499,0.076c0.406,0.04,0.804,0.095,1.198,0.163
			c1.007,0.176,1.983,0.447,2.916,0.792c0.466,0.168,0.912,0.354,1.35,0.553c0.971,0.442,1.881,0.958,2.729,1.516
			c0.597,0.392,1.156,0.808,1.684,1.231c0.907,0.74,1.699,1.514,2.356,2.272c0.786,0.904,1.375,1.789,1.735,2.566
			c0.265,0.568,0.403,1.078,0.403,1.5c0,0.432-0.129,0.943-0.376,1.499c-0.352,0.791-0.933,1.681-1.706,2.585
			c-0.653,0.764-1.444,1.535-2.354,2.272c-0.528,0.432-1.102,0.851-1.703,1.243c-0.852,0.555-1.766,1.066-2.742,1.506
			c-0.442,0.198-0.9,0.38-1.361,0.548C23.688,28.994,22.709,29.254,21.699,29.432z"/>
		<path fill="#60ABEB" d="M26.767,17.5c-0.006-0.029-0.011-0.058-0.016-0.089c-0.205-1.005-0.604-1.942-1.154-2.772
			c-0.016-0.023-0.031-0.049-0.049-0.073c-0.565-0.833-1.285-1.555-2.122-2.122c-0.023-0.015-0.05-0.03-0.072-0.048
			c-0.825-0.547-1.769-0.943-2.771-1.154c-0.034-0.005-0.056-0.01-0.093-0.016c-0.485-0.093-0.984-0.141-1.496-0.141
			c-0.51,0-1.014,0.048-1.499,0.141c-0.03,0.005-0.06,0.01-0.09,0.016c-1.005,0.206-1.943,0.604-2.771,1.154
			c-0.023,0.018-0.05,0.033-0.073,0.048c-0.834,0.567-1.555,1.288-2.122,2.122c-0.015,0.024-0.031,0.05-0.05,0.073
			c-0.547,0.828-0.942,1.767-1.15,2.772c-0.005,0.029-0.01,0.058-0.015,0.089c-0.093,0.487-0.142,0.987-0.142,1.5
			c0,0.511,0.049,1.013,0.142,1.501c0.005,0.028,0.01,0.054,0.015,0.087c0.206,1.008,0.603,1.94,1.15,2.771
			c0.02,0.025,0.035,0.052,0.05,0.077c0.567,0.827,1.288,1.552,2.122,2.117c0.023,0.019,0.05,0.036,0.073,0.052
			c0.826,0.547,1.767,0.943,2.771,1.154c0.031,0.005,0.058,0.01,0.09,0.016c0.485,0.092,0.986,0.141,1.499,0.141
			c0.511,0,1.012-0.049,1.496-0.141c0.034-0.006,0.059-0.011,0.093-0.016c1.002-0.206,1.94-0.604,2.771-1.154
			c0.025-0.016,0.052-0.033,0.072-0.052c0.832-0.565,1.552-1.284,2.122-2.117c0.018-0.03,0.033-0.057,0.049-0.077
			c0.547-0.824,0.946-1.763,1.154-2.771c0.005-0.033,0.01-0.056,0.016-0.087c0.092-0.491,0.141-0.988,0.141-1.501
			S26.858,17.987,26.767,17.5z"/>
	</g>
</g>
</svg>
